<?xml version="1.0" encoding="UTF-8" standalone="no"?>
<!DOCTYPE svg PUBLIC "-//W3C//DTD SVG 1.1//EN"
 "http://www.w3.org/Graphics/SVG/1.1/DTD/svg11.dtd">
<!-- Generated by graphviz version 12.1.2 (0)
 -->
<!-- Title: G Pages: 1 -->
<svg width="505pt" height="90pt"
 viewBox="0.00 0.00 505.35 90.00" xmlns="http://www.w3.org/2000/svg" xmlns:xlink="http://www.w3.org/1999/xlink">
<g id="graph0" class="graph" transform="scale(1 1) rotate(0) translate(4 86)">
<title>G</title>
<polygon fill="white" stroke="none" points="-4,4 -4,-86 501.35,-86 501.35,4 -4,4"/>
<!-- hit -->
<g id="node1" class="node">
<title>hit</title>
<ellipse fill="none" stroke="black" cx="277.65" cy="-64" rx="27" ry="18"/>
<text text-anchor="middle" x="277.65" y="-59.33" font-family="Times,serif" font-size="14.00">hit</text>
</g>
<!-- return -->
<g id="node5" class="node">
<title>return</title>
<polygon fill="none" stroke="black" points="497.35,-48.2 482.95,-48.2 482.95,-33.8 497.35,-33.8 497.35,-48.2"/>
</g>
<!-- hit&#45;&gt;return -->
<g id="edge1" class="edge">
<title>hit&#45;&gt;return</title>
<path fill="none" stroke="black" d="M305.09,-63.36C341.4,-62.1 408.61,-58.46 464.95,-48 467.11,-47.6 469.36,-47.08 471.57,-46.52"/>
<polygon fill="black" stroke="black" points="472.39,-49.92 481,-43.75 470.42,-43.21 472.39,-49.92"/>
</g>
<!-- miss -->
<g id="node2" class="node">
<title>miss</title>
<ellipse fill="none" stroke="black" cx="198.27" cy="-18" rx="34.37" ry="18"/>
<text text-anchor="middle" x="198.27" y="-13.32" font-family="Times,serif" font-size="14.00">miss</text>
</g>
<!-- main_seq -->
<g id="node6" class="node">
<title>main_seq</title>
<polygon fill="none" stroke="black" points="337.05,-25.2 322.65,-25.2 322.65,-10.8 337.05,-10.8 337.05,-25.2"/>
</g>
<!-- miss&#45;&gt;main_seq -->
<g id="edge2" class="edge">
<title>miss&#45;&gt;main_seq</title>
<path fill="none" stroke="black" d="M232.98,-18C257.95,-18 291.01,-18 311.06,-18"/>
<polygon fill="black" stroke="black" points="310.86,-21.5 320.86,-18 310.86,-14.5 310.86,-21.5"/>
</g>
<!-- main -->
<g id="node3" class="node">
<title>main</title>
<ellipse fill="none" stroke="black" cx="410" cy="-18" rx="35.95" ry="18"/>
<text text-anchor="middle" x="410" y="-13.32" font-family="Times,serif" font-size="14.00">main</text>
</g>
<!-- main&#45;&gt;return -->
<g id="edge3" class="edge">
<title>main&#45;&gt;return</title>
<path fill="none" stroke="black" d="M441.43,-26.96C451.69,-29.98 462.78,-33.24 471.68,-35.86"/>
<polygon fill="black" stroke="black" points="470.47,-39.15 481.05,-38.62 472.44,-32.44 470.47,-39.15"/>
</g>
<!-- read_prob -->
<g id="node4" class="node">
<title>read_prob</title>
<ellipse fill="none" stroke="black" cx="78.4" cy="-41" rx="27" ry="18"/>
<text text-anchor="middle" x="78.4" y="-36.33" font-family="Times,serif" font-size="14.00">⇋</text>
</g>
<!-- read_prob&#45;&gt;hit -->
<g id="edge4" class="edge">
<title>read_prob&#45;&gt;hit</title>
<path fill="none" stroke="black" d="M105.19,-44.01C139.42,-48 200.12,-55.08 239.35,-59.65"/>
<polygon fill="black" stroke="black" points="238.7,-63.1 249.03,-60.78 239.51,-56.15 238.7,-63.1"/>
<text text-anchor="middle" x="134.65" y="-52.58" font-family="Times,serif" font-size="14.00">0.8</text>
</g>
<!-- read_prob&#45;&gt;miss -->
<g id="edge5" class="edge">
<title>read_prob&#45;&gt;miss</title>
<path fill="none" stroke="black" d="M101.89,-31.4C108.69,-28.86 116.25,-26.37 123.4,-24.75 132.6,-22.67 142.58,-21.23 152.14,-20.23"/>
<polygon fill="black" stroke="black" points="152.36,-23.72 162.01,-19.35 151.74,-16.75 152.36,-23.72"/>
<text text-anchor="middle" x="134.65" y="-28.7" font-family="Times,serif" font-size="14.00">0.2</text>
</g>
<!-- main_seq&#45;&gt;main -->
<g id="edge6" class="edge">
<title>main_seq&#45;&gt;main</title>
<path fill="none" stroke="black" d="M337.51,-18C343.41,-18 352.59,-18 362.43,-18"/>
<polygon fill="black" stroke="black" points="362.17,-21.5 372.17,-18 362.17,-14.5 362.17,-21.5"/>
</g>
<!-- read -->
<g id="node7" class="node">
<title>read</title>
<polygon fill="none" stroke="black" points="14.4,-48.2 0,-48.2 0,-33.8 14.4,-33.8 14.4,-48.2"/>
</g>
<!-- read&#45;&gt;read_prob -->
<g id="edge7" class="edge">
<title>read&#45;&gt;read_prob</title>
<path fill="none" stroke="black" d="M14.84,-41C20.82,-41 30.13,-41 39.76,-41"/>
<polygon fill="black" stroke="black" points="39.51,-44.5 49.51,-41 39.51,-37.5 39.51,-44.5"/>
</g>
</g>
</svg>
